<svg width="15" height="15" viewBox="0 0 15 15" fill="none" xmlns="http://www.w3.org/2000/svg">
<path fill-rule="evenodd" clip-rule="evenodd" d="M13.3114 7.15572C13.3114 10.5554 10.5554 13.3114 7.15572 13.3114C3.75601 13.3114 1 10.5554 1 7.15572C1 3.75601 3.75601 1 7.15572 1C10.5554 1 13.3114 3.75601 13.3114 7.15572ZM14.3114 7.15572C14.3114 11.1077 11.1077 14.3114 7.15572 14.3114C3.20372 14.3114 0 11.1077 0 7.15572C0 3.20372 3.20372 0 7.15572 0C11.1077 0 14.3114 3.20372 14.3114 7.15572ZM7.11956 9.75728L10.6974 5.7323L9.87528 5.00149L6.68494 8.59052L4.41399 6.31967L3.63619 7.0975L6.31959 9.78079L6.73204 10.1932L7.11956 9.75728Z" fill="#1D1D1B"/>
</svg>
