<svg width="21" height="21" viewBox="0 0 21 21" fill="none" xmlns="http://www.w3.org/2000/svg">
<path fill-rule="evenodd" clip-rule="evenodd" d="M19.5232 10.2616C19.5232 15.3766 15.3766 19.5232 10.2616 19.5232C5.14656 19.5232 1 15.3766 1 10.2616C1 5.14656 5.14656 1 10.2616 1C15.3766 1 19.5232 5.14656 19.5232 10.2616ZM20.5232 10.2616C20.5232 15.9289 15.9289 20.5232 10.2616 20.5232C4.59428 20.5232 0 15.9289 0 10.2616C0 4.59428 4.59428 0 10.2616 0C15.9289 0 20.5232 4.59428 20.5232 10.2616ZM10.0313 13.8337L15.1621 8.06175L14.34 7.33094L9.5967 12.667L6.16105 9.23148L5.38325 10.0093L9.23135 13.8573L9.6438 14.2697L10.0313 13.8337Z" fill="#007B40"/>
</svg>
