<svg width="475" height="197" viewBox="0 0 475 197" fill="none" xmlns="http://www.w3.org/2000/svg">
<path d="M423.442 196.315L372.788 166.966L322.134 196.315L271.481 166.966L220.827 196.315L170.173 166.966L119.519 196.315L68.8657 166.966L18.212 196.315L-32.4417 166.966L-82.1909 195.794L-84 192.648L-32.4417 162.778L18.212 192.127L68.8657 162.778L119.519 192.127L170.173 162.778L220.827 192.127L271.481 162.778L322.134 192.127L372.788 162.778L423.442 192.127L473.191 163.299L475 166.445L423.442 196.315Z" fill="#FFEC40"/>
<path d="M423.442 98.5001L372.788 69.1511L322.134 98.5001L271.481 69.1511L220.827 98.5001L170.173 69.1511L119.519 98.5001L68.8657 69.1511L18.212 98.5001L-32.4417 69.1511L-82.1909 97.9797L-84 94.833L-32.4417 64.9636L18.212 94.3126L68.8657 64.9636L119.519 94.3126L170.173 64.9636L220.827 94.3126L271.481 64.9636L322.134 94.3126L372.788 64.9636L423.442 94.3126L473.191 65.484L475 68.6307L423.442 98.5001Z" fill="#FFEC40"/>
<path d="M423.442 162.778L372.788 134.652L322.134 162.778L271.481 134.652L220.827 162.778L170.173 134.652L119.519 162.778L68.8657 134.652L18.212 162.778L-32.4417 134.652L-82.1909 162.28L-84 159.264L-32.4417 130.639L18.212 158.765L68.8657 130.639L119.519 158.765L170.173 130.639L220.827 158.765L271.481 130.639L322.134 158.765L372.788 130.639L423.442 158.765L473.191 131.138L475 134.153L423.442 162.778Z" fill="#FFEC40"/>
<path d="M423.442 64.9636L372.788 36.8375L322.134 64.9636L271.481 36.8375L220.827 64.9636L170.173 36.8375L119.519 64.9636L68.8657 36.8375L18.212 64.9636L-32.4417 36.8375L-82.1909 64.4649L-84 61.4493L-32.4417 32.8244L18.212 60.9505L68.8657 32.8244L119.519 60.9505L170.173 32.8244L220.827 60.9505L271.481 32.8244L322.134 60.9505L372.788 32.8244L423.442 60.9505L473.191 33.3232L475 36.3387L423.442 64.9636Z" fill="#FFEC40"/>
<path d="M423.442 130.639L372.788 102.513L322.134 130.639L271.481 102.513L220.827 130.639L170.173 102.513L119.519 130.639L68.8657 102.513L18.212 130.639L-32.4417 102.513L-82.1909 130.141L-84 127.125L-32.4417 98.5002L18.212 126.626L68.8657 98.5002L119.519 126.626L170.173 98.5002L220.827 126.626L271.481 98.5002L322.134 126.626L372.788 98.5002L423.442 126.626L473.191 98.9989L475 102.015L423.442 130.639Z" fill="#FFEC40"/>
<path d="M423.442 32.8244L372.788 4.69832L322.134 32.8244L271.481 4.69832L220.827 32.8244L170.173 4.69832L119.519 32.8244L68.8657 4.69832L18.212 32.8244L-32.4417 4.69832L-82.1909 32.3257L-84 29.3101L-32.4417 0.685272L18.212 28.8114L68.8657 0.685273L119.519 28.8114L170.173 0.685273L220.827 28.8114L271.481 0.685274L322.134 28.8114L372.788 0.685274L423.442 28.8114L473.191 1.18401L475 4.19959L423.442 32.8244Z" fill="#FFEC40"/>
</svg>