<svg width="107" height="84" viewBox="0 0 107 84" fill="none" xmlns="http://www.w3.org/2000/svg">
<path d="M-109.959 83.6295L-88.3055 71.0832L-66.6515 83.6295L-44.9976 71.0832L-23.3437 83.6295L-1.68976 71.0832L19.9642 83.6295L41.6181 71.0832L63.272 83.6295L84.9259 71.0832L106.193 83.4071L106.967 82.0619L84.9259 69.293L63.272 81.8394L41.6181 69.293L19.9642 81.8394L-1.68976 69.293L-23.3437 81.8394L-44.9976 69.293L-66.6515 81.8394L-88.3055 69.293L-109.959 81.8394L-131.227 69.5155L-132 70.8607L-109.959 83.6295Z" fill="#FFEC40"/>
<path d="M-109.959 41.8148L-88.3055 29.2684L-66.6515 41.8148L-44.9976 29.2684L-23.3437 41.8148L-1.68976 29.2684L19.9642 41.8148L41.6181 29.2684L63.272 41.8148L84.9259 29.2684L106.193 41.5923L106.967 40.2472L84.9259 27.4783L63.272 40.0247L41.6181 27.4783L19.9642 40.0247L-1.68976 27.4783L-23.3437 40.0247L-44.9976 27.4783L-66.6515 40.0247L-88.3055 27.4783L-109.959 40.0247L-131.227 27.7008L-132 29.046L-109.959 41.8148Z" fill="#FFEC40"/>
<path d="M-109.959 69.293L-88.3055 57.2694L-66.6515 69.293L-44.9976 57.2694L-23.3437 69.293L-1.68976 57.2694L19.9642 69.293L41.6181 57.2694L63.272 69.293L84.9259 57.2694L106.193 69.0798L106.967 67.7907L84.9259 55.5539L63.272 67.5775L41.6181 55.5539L19.9642 67.5775L-1.68976 55.5539L-23.3437 67.5775L-44.9976 55.5539L-66.6515 67.5775L-88.3055 55.5539L-109.959 67.5775L-131.227 55.7671L-132 57.0562L-109.959 69.293Z" fill="#FFEC40"/>
<path d="M-109.959 27.4783L-88.3055 15.4547L-66.6515 27.4783L-44.9976 15.4547L-23.3437 27.4783L-1.68976 15.4547L19.9642 27.4783L41.6181 15.4547L63.272 27.4783L84.9259 15.4547L106.193 27.2651L106.967 25.9759L84.9259 13.7391L63.272 25.7627L41.6181 13.7391L19.9642 25.7627L-1.68976 13.7391L-23.3437 25.7627L-44.9976 13.7391L-66.6515 25.7627L-88.3055 13.7391L-109.959 25.7627L-131.227 13.9523L-132 15.2415L-109.959 27.4783Z" fill="#FFEC40"/>
<path d="M-109.959 55.554L-88.3055 43.5304L-66.6515 55.554L-44.9976 43.5304L-23.3437 55.554L-1.68976 43.5304L19.9642 55.554L41.6181 43.5304L63.272 55.554L84.9259 43.5304L106.193 55.3408L106.967 54.0517L84.9259 41.8148L63.272 53.8385L41.6181 41.8149L19.9642 53.8385L-1.68976 41.8149L-23.3437 53.8385L-44.9976 41.8149L-66.6515 53.8385L-88.3055 41.8149L-109.959 53.8385L-131.227 42.0281L-132 43.3172L-109.959 55.554Z" fill="#FFEC40"/>
<path d="M-109.959 13.7391L-88.3055 1.71553L-66.6515 13.7391L-44.9976 1.71553L-23.3437 13.7391L-1.68976 1.71553L19.9642 13.7391L41.6181 1.71553L63.272 13.7391L84.9259 1.71553L106.193 13.5259L106.967 12.2368L84.9259 1.00507e-07L63.272 12.0236L41.6181 2.97993e-07L19.9642 12.0236L-1.68976 4.9548e-07L-23.3437 12.0236L-44.9976 6.92966e-07L-66.6515 12.0236L-88.3055 8.90453e-07L-109.959 12.0236L-131.227 0.213203L-132 1.50233L-109.959 13.7391Z" fill="#FFEC40"/>
</svg>
